PathFileType	4	(X/Y/Z)	C:/Users/opensim2020/Desktop/walking_exp_matlab/subject03_walking10_straight_03.trc	
DataRate	CameraRate	NumFrames	NumMarkers	Units	OrigDataRate	OrigDataStartFrame	OrigNumFrames	
100.00	100.00	6	45	mm	100.00	2738	417	
Frame#	Time	LFHD			RFHD			LBHD			RBHD			C7			T10			CLAV			STRN			RBAK			LSHO			LUPA			LELB			LFRM			LWRA			LWRB			LFIN			RSHO			RUPA			RELB			RFRM			RWRA			RWRB			RFIN			LASI			RASI			LPSI			RPSI			LTHI			LKNE			LTIB			LANK			LHEE			LTOE			RTHI			RKNE			RTIB			RANK			RHEE			RTOE			*39			*40			*41			*42			*43			*44			
		X1	Y1	Z1	X2	Y2	Z2	X3	Y3	Z3	X4	Y4	Z4	X5	Y5	Z5	X6	Y6	Z6	X7	Y7	Z7	X8	Y8	Z8	X9	Y9	Z9	X10	Y10	Z10	X11	Y11	Z11	X12	Y12	Z12	X13	Y13	Z13	X14	Y14	Z14	X15	Y15	Z15	X16	Y16	Z16	X17	Y17	Z17	X18	Y18	Z18	X19	Y19	Z19	X20	Y20	Z20	X21	Y21	Z21	X22	Y22	Z22	X23	Y23	Z23	X24	Y24	Z24	X25	Y25	Z25	X26	Y26	Z26	X27	Y27	Z27	X28	Y28	Z28	X29	Y29	Z29	X30	Y30	Z30	X31	Y31	Z31	X32	Y32	Z32	X33	Y33	Z33	X34	Y34	Z34	X35	Y35	Z35	X36	Y36	Z36	X37	Y37	Z37	X38	Y38	Z38	X39	Y39	Z39	X40	Y40	Z40	X41	Y41	Z41	X42	Y42	Z42	X43	Y43	Z43	X44	Y44	Z44	X45	Y45	Z45	

1	0.000	1337.51868	-1193.19519	1632.33337	1469.32739	-1182.37854	1641.05212	1353.97375	-1312.96606	1572.17102	1483.74146	-1298.62878	1581.35999	1411.21985	-1327.57336	1425.68762	1418.47375	-1365.20044	1114.57019	1408.34412	-1204.01611	1349.92712	1406.67542	-1162.23218	1184.31995	1514.86536	-1376.25049	1255.60364	1254.05737	-1257.14026	1385.21912	1179.41492	-1275.95642	1190.76282	1159.78516	-1271.39331	1068.83813	1150.12805	-1244.20105	941.72974	1171.75195	-1222.09583	822.15509	1123.85278	-1249.49768	830.26337	1127.53992	-1233.86279	746.22461	1569.03955	-1242.37500	1378.34192	1651.30920	-1233.00391	1160.06006	1668.71423	-1213.53442	1049.60486	1675.95508	-1188.91248	914.99054	1643.31128	-1154.03992	820.28259	1687.68799	-1184.14844	814.77905	1680.47339	-1158.13416	745.13397	1304.84778	-1204.12329	946.93591	1539.87427	-1206.99878	944.38043	1351.64404	-1365.32947	977.20532	1501.47693	-1365.22986	982.31293	1267.54443	-1249.63953	647.29767	1312.07605	-1227.66028	471.83908	1310.20410	-1262.15405	279.63007	1353.26917	-1259.44495	69.62910	1388.39258	-1298.65881	34.74528	1386.60693	-1106.35815	35.44430	1595.38306	-1281.53650	648.43610	1577.35718	-1279.46082	467.33139	1588.80859	-1414.61365	327.88428	1551.74536	-1557.85120	162.25768	1500.88257	-1610.86084	166.81697	1518.12061	-1481.50366	40.53897																		 
2	0.010	1336.58508	-1187.89905	1632.37622	1468.51453	-1177.59998	1641.10461	1352.60352	-1307.78149	1572.34717	1482.48206	-1293.85693	1581.38550	1409.33691	-1322.47266	1425.65271	1417.04297	-1359.99951	1114.54700	1407.32959	-1196.76538	1350.91235	1406.14490	-1156.98779	1184.30078	1512.64795	-1371.75146	1255.49365	1252.84705	-1250.74451	1384.87793	1176.91687	-1266.64026	1190.86987	1156.75806	-1259.62659	1069.10376	1146.42493	-1231.34192	942.27747	1167.54504	-1209.09619	822.64142	1118.97913	-1235.36475	831.05292	1122.40100	-1219.67993	746.85101	1567.87695	-1238.18445	1378.35742	1650.68103	-1229.66174	1160.31738	1668.52625	-1210.18164	1050.00928	1675.90344	-1185.16248	915.41870	1643.48108	-1149.70337	820.95160	1687.74854	-1180.04224	815.31891	1680.59619	-1153.73743	745.81720	1304.09265	-1198.51074	947.30115	1539.35620	-1202.12231	944.51129	1350.90381	-1360.09009	977.21716	1500.52625	-1360.40198	981.57159	1266.75171	-1244.60388	647.62421	1311.37244	-1224.78406	472.01425	1309.58215	-1260.63049	279.73175	1352.84485	-1259.56628	69.61768	1388.14465	-1298.80847	34.77184	1386.59363	-1106.51221	35.35323	1595.13965	-1272.36829	647.88806	1577.39795	-1266.87512	466.86591	1588.69189	-1402.98132	328.81891	1551.46265	-1548.62732	165.78008	1500.14075	-1601.62390	170.23282	1520.27539	-1472.80286	43.47172																		 
3	0.020	1335.70264	-1182.74329	1632.49976	1467.61377	-1172.74146	1641.10364	1351.30444	-1302.58252	1572.40869	1481.15369	-1289.09387	1581.38428	1407.46997	-1317.31238	1425.52173	1415.76282	-1354.90942	1114.49902	1406.41870	-1191.70081	1350.77722	1405.65405	-1151.98511	1184.07446	1510.48059	-1367.38721	1255.43201	1251.64160	-1244.47034	1384.45715	1174.90564	-1256.43091	1190.77039	1153.88855	-1247.90356	1069.38354	1143.04700	-1218.33154	943.02600	1163.26965	-1195.97156	822.98322	1114.31970	-1221.09851	831.88751	1117.20142	-1205.14270	747.70911	1566.69983	-1234.23730	1378.26501	1650.09192	-1226.34070	1160.53357	1668.16138	-1206.94714	1050.17542	1675.69702	-1181.45374	915.75507	1643.49438	-1145.51758	821.51910	1687.52100	-1176.02283	815.62830	1680.38818	-1149.03723	746.48547	1303.47485	-1193.08069	947.48438	1538.92480	-1197.33044	944.51440	1350.17749	-1354.99219	977.22980	1499.74084	-1355.62170	980.74548	1266.00525	-1239.73865	647.79785	1310.55396	-1221.33521	471.93710	1309.34155	-1258.91919	279.69443	1352.52136	-1259.55396	69.57980	1387.91150	-1298.85254	34.72829	1386.49890	-1106.59375	35.31685	1594.40710	-1263.51831	647.47168	1577.31238	-1254.43481	466.68164	1588.27124	-1391.59180	330.17020	1550.95410	-1538.69153	168.90375	1499.29492	-1591.81189	172.64178	1522.46729	-1462.59875	46.57304																		 
4	0.030	1334.79761	-1177.41272	1632.51563	1466.72644	-1167.93469	1641.10107	1349.97131	-1297.26575	1572.39404	1479.91553	-1284.28125	1581.34802	1405.81665	-1312.18176	1425.62561	1414.64771	-1349.92883	1114.49487	1405.58887	-1186.63794	1350.62732	1405.37463	-1146.97339	1183.86499	1508.47314	-1363.05774	1255.43726	1250.56104	-1238.27014	1383.95789	1172.76404	-1247.12720	1190.80444	1151.18823	-1236.24646	1069.67578	1139.75244	-1205.41064	943.54639	1159.42236	-1182.50964	823.72070	1109.90601	-1206.71729	832.82880	1112.23999	-1190.26086	748.75604	1565.64709	-1230.28918	1378.23108	1649.47388	-1223.07800	1160.54919	1667.69299	-1203.68921	1050.35144	1675.39868	-1177.79919	915.99121	1643.26172	-1141.28308	821.97144	1687.24756	-1172.00708	815.93323	1680.31433	-1144.41479	747.02661	1302.81750	-1187.72144	947.62555	1538.57629	-1192.52893	944.50061	1349.47253	-1349.85547	977.14423	1498.90637	-1350.81836	979.94666	1265.42883	-1235.14722	648.10950	1309.91272	-1218.30750	471.86203	1308.51294	-1257.52271	279.87805	1352.27307	-1259.81018	69.80598	1387.73279	-1298.89966	34.74225	1386.45496	-1106.67615	35.23111	1594.05469	-1254.85730	647.32782	1577.29785	-1242.14160	466.75983	1587.75708	-1380.00708	331.44177	1550.44409	-1528.10864	171.40331	1498.23474	-1581.18579	174.19449	1525.33948	-1451.01685	49.77470																		 
5	0.040	1333.96765	-1172.05261	1632.49829	1465.92761	-1163.13953	1641.11511	1348.63428	-1292.18579	1572.38660	1478.65881	-1279.46960	1581.32263	1404.18787	-1307.00586	1425.66064	1413.74011	-1344.98267	1114.49927	1404.90857	-1181.68909	1350.40076	1404.98975	-1142.17993	1183.56274	1506.58606	-1358.73010	1255.44714	1249.48340	-1232.12756	1383.38110	1170.94714	-1237.67334	1190.75964	1148.70288	-1224.81665	1070.06152	1136.77429	-1192.49268	944.31720	1155.62488	-1169.35669	824.25952	1105.78125	-1192.33850	833.90979	1107.45947	-1175.31519	749.95612	1564.73059	-1226.30530	1378.16382	1648.90784	-1219.96570	1160.70752	1667.29956	-1200.52002	1050.38867	1675.00183	-1174.18982	916.20789	1643.11096	-1137.27332	822.42163	1686.81128	-1168.07776	816.21515	1680.02905	-1139.57629	747.45721	1302.20801	-1182.49829	947.65350	1538.07898	-1187.62817	944.50427	1348.75085	-1344.78662	977.02606	1498.21484	-1345.96582	979.31311	1264.71655	-1231.06360	648.17542	1309.19922	-1215.23059	471.82263	1308.56982	-1255.66455	279.95172	1352.07983	-1259.66797	69.85494	1387.67224	-1298.92468	34.97330	1386.40149	-1106.65796	35.15952	1593.70764	-1246.25745	647.39056	1577.29541	-1230.05005	467.22345	1587.17834	-1368.29993	332.65802	1549.53955	-1516.52722	172.88773	1497.03723	-1569.65991	174.89778	1528.04358	-1438.61182	52.03715																		 
6	0.050	1333.12805	-1166.72607	1632.53284	1465.15540	-1158.26770	1641.15881	1347.41248	-1286.72412	1572.29736	1477.42590	-1274.70483	1581.31165	1402.65186	-1301.84521	1425.73547	1412.87341	-1340.11084	1114.55249	1404.21545	-1176.67297	1350.27783	1404.52979	-1137.32874	1183.50476	1504.81494	-1354.44458	1255.55090	1248.52979	-1226.14368	1382.93701	1169.08484	-1228.81213	1190.87122	1146.37646	-1213.55933	1070.53406	1134.10437	-1179.62781	945.24585	1152.10889	-1155.79382	825.30591	1101.91846	-1177.90149	835.21234	1102.97339	-1160.03198	751.44342	1563.79150	-1222.43225	1378.21558	1648.11487	-1216.86145	1160.66687	1666.76514	-1197.45630	1050.52612	1674.49097	-1170.75122	916.37402	1642.72412	-1133.30042	822.86792	1686.24500	-1164.37708	816.41644	1679.74316	-1135.06946	747.91003	1301.57410	-1177.32227	947.71460	1537.65759	-1182.77124	944.60406	1347.97522	-1339.66638	976.90338	1497.42419	-1341.07715	978.88586	1264.24670	-1227.15601	648.09961	1308.55981	-1212.17346	471.54053	1308.29126	-1254.05786	279.98788	1351.94946	-1259.32239	69.67911	1387.57031	-1298.91797	35.05248	1386.35779	-1106.59875	35.10911	1593.38354	-1237.83911	647.66296	1577.31226	-1218.29675	467.85931	1586.50586	-1356.26367	333.57990	1548.88831	-1504.39746	173.92209	1495.63293	-1557.36511	174.78558	1530.71228	-1425.46069	53.86581																		 
